<svg xmlns="http://www.w3.org/2000/svg" viewBox="0 0 70 70">
  <path fill="#3c3836" d="m 116.42573,131.67113 a 35,34.999996 0 0 0 -34.998898,35.00096 35,34.999996 0 0 0 35.000448,34.9989 35,34.999996 0 0 0 34.99942,-34.99993 l -25.79739,-5.2e-4 10.6226,19.27841 h -9.89965 l -9.92549,-19.27789 5.1e-4,-5.2e-4 9.8733,-16.82894 h 8.96121 l -9.79216,16.53904 0.15968,0.28939 25.79739,-5.2e-4 A 35,34.999996 0 0 0 116.42573,131.67113 Z M 92.854041,149.8416 h 28.705229 l -3.83594,6.53862 h -6.19084 v 29.56822 h -8.5447 V 156.38022 H 92.854041 Z" transform="translate(-81.426832,-131.67113)"/>
</svg>
