<svg
  xmlns="http://www.w3.org/2000/svg"
  viewBox="0 0 706 60"
>
  <g transform="translate(10 10)" fill="currentColor">
    <rect x="0" y="0" width="4" height="40" />
    <rect x="6" y="0" width="2" height="40" />
    <rect x="12" y="0" width="2" height="40" />
    <rect x="22" y="0" width="2" height="40" />
    <rect x="28" y="0" width="4" height="40" />
    <rect x="40" y="0" width="2" height="40" />
    <rect x="44" y="0" width="2" height="40" />
    <rect x="50" y="0" width="8" height="40" />
    <rect x="60" y="0" width="2" height="40" />
    <rect x="66" y="0" width="2" height="40" />
    <rect x="72" y="0" width="8" height="40" />
    <rect x="82" y="0" width="2" height="40" />
    <rect x="88" y="0" width="2" height="40" />
    <rect x="92" y="0" width="2" height="40" />
    <rect x="98" y="0" width="8" height="40" />
    <rect x="110" y="0" width="2" height="40" />
    <rect x="114" y="0" width="8" height="40" />
    <rect x="126" y="0" width="2" height="40" />
    <rect x="132" y="0" width="6" height="40" />
    <rect x="142" y="0" width="2" height="40" />
    <rect x="148" y="0" width="4" height="40" />
    <rect x="154" y="0" width="2" height="40" />
    <rect x="158" y="0" width="6" height="40" />
    <rect x="168" y="0" width="4" height="40" />
    <rect x="176" y="0" width="2" height="40" />
    <rect x="180" y="0" width="6" height="40" />
    <rect x="190" y="0" width="4" height="40" />
    <rect x="198" y="0" width="2" height="40" />
    <rect x="204" y="0" width="8" height="40" />
    <rect x="214" y="0" width="2" height="40" />
    <rect x="220" y="0" width="2" height="40" />
    <rect x="226" y="0" width="2" height="40" />
    <rect x="232" y="0" width="8" height="40" />
    <rect x="242" y="0" width="2" height="40" />
    <rect x="252" y="0" width="4" height="40" />
    <rect x="258" y="0" width="2" height="40" />
    <rect x="264" y="0" width="2" height="40" />
    <rect x="268" y="0" width="8" height="40" />
    <rect x="280" y="0" width="2" height="40" />
    <rect x="286" y="0" width="2" height="40" />
    <rect x="292" y="0" width="8" height="40" />
    <rect x="302" y="0" width="2" height="40" />
    <rect x="308" y="0" width="2" height="40" />
    <rect x="314" y="0" width="2" height="40" />
    <rect x="318" y="0" width="4" height="40" />
    <rect x="330" y="0" width="4" height="40" />
    <rect x="342" y="0" width="2" height="40" />
    <rect x="346" y="0" width="2" height="40" />
    <rect x="352" y="0" width="2" height="40" />
    <rect x="358" y="0" width="4" height="40" />
    <rect x="364" y="0" width="6" height="40" />
    <rect x="374" y="0" width="4" height="40" />
    <rect x="386" y="0" width="2" height="40" />
    <rect x="392" y="0" width="2" height="40" />
    <rect x="396" y="0" width="2" height="40" />
    <rect x="400" y="0" width="4" height="40" />
    <rect x="408" y="0" width="2" height="40" />
    <rect x="418" y="0" width="4" height="40" />
    <rect x="430" y="0" width="2" height="40" />
    <rect x="434" y="0" width="2" height="40" />
    <rect x="440" y="0" width="4" height="40" />
    <rect x="452" y="0" width="2" height="40" />
    <rect x="456" y="0" width="2" height="40" />
    <rect x="462" y="0" width="2" height="40" />
    <rect x="466" y="0" width="4" height="40" />
    <rect x="474" y="0" width="2" height="40" />
    <rect x="484" y="0" width="2" height="40" />
    <rect x="494" y="0" width="2" height="40" />
    <rect x="500" y="0" width="4" height="40" />
    <rect x="506" y="0" width="4" height="40" />
    <rect x="512" y="0" width="4" height="40" />
    <rect x="518" y="0" width="8" height="40" />
    <rect x="528" y="0" width="2" height="40" />
    <rect x="534" y="0" width="4" height="40" />
    <rect x="542" y="0" width="6" height="40" />
    <rect x="550" y="0" width="2" height="40" />
    <rect x="560" y="0" width="2" height="40" />
    <rect x="564" y="0" width="4" height="40" />
    <rect x="572" y="0" width="2" height="40" />
    <rect x="580" y="0" width="8" height="40" />
    <rect x="590" y="0" width="2" height="40" />
    <rect x="594" y="0" width="8" height="40" />
    <rect x="604" y="0" width="6" height="40" />
    <rect x="612" y="0" width="2" height="40" />
    <rect x="616" y="0" width="2" height="40" />
    <rect x="620" y="0" width="6" height="40" />
    <rect x="630" y="0" width="4" height="40" />
    <rect x="638" y="0" width="2" height="40" />
    <rect x="646" y="0" width="4" height="40" />
    <rect x="656" y="0" width="2" height="40" />
    <rect x="660" y="0" width="4" height="40" />
    <rect x="670" y="0" width="6" height="40" />
    <rect x="678" y="0" width="2" height="40" />
    <rect x="682" y="0" width="4" height="40" />
  </g>
</svg>
