<?xml version="1.0" encoding="UTF-8" standalone="no"?>
<!--Created with Inkscape (http://www.inkscape.org/)-->
<svg width="130.59406mm" height="47.722515mm" viewBox="0 0 130.59406 47.722515" version="1.1" id="svg1" xml:space="preserve" xmlns="http://www.w3.org/2000/svg" xmlns:svg="http://www.w3.org/2000/svg">
  <defs id="defs1"/>
  <g id="layer1" transform="translate(-29.357749,-123.94185)">
    <path style="fill:none;stroke:currentColor;stroke-width:0.511091;stroke-dasharray:6.13309, 6.13309;stroke-dashoffset:0;stroke-opacity:1;paint-order:stroke fill markers" d="m 29.370107,171.30358 c 18.013488,0.87234 37.967289,-3.55149 49.973028,-18.01769 5.03038,-5.26333 6.922988,-13.62232 2.948503,-20.03396 -2.861576,-5.73187 -10.144119,-8.1478 -15.906706,-5.40403 -6.786398,1.78702 -11.749823,8.27101 -11.438892,15.33018 -0.27835,7.02692 5.041838,12.96976 11.591232,14.81547 11.739974,4.39726 24.181813,-0.86405 34.122568,-7.16304 10.84358,-6.68473 21.44656,-15.21189 34.62435,-16.34231" id="path1"/>
    <path id="path2" style="fill:currentColor;stroke-width:0.529167;stroke-dasharray:6.35, 6.35;paint-order:stroke fill markers" d="m 120.5155,116.90262 c -0.061,0.0192 -0.10244,0.0409 -0.12288,0.0653 -0.31883,0.37989 0.99631,4.04435 2.63862,8.58942 l 12.83411,-3.4463 -12.03455,5.41425 c 1.72663,4.77841 3.00573,8.47311 3.51922,8.56371 1.00189,0.17676 16.4832,-16.06257 16.13533,-17.01861 -0.33699,-0.92617 -21.07919,-2.76237 -22.96985,-2.16773 z" transform="rotate(14.655075,102.02215,189.4858)"/>
  </g>
</svg>
